<?xml version="1.0" standalone="no"?>
<!DOCTYPE svg PUBLIC "-//W3C//DTD SVG 20010904//EN"
 "http://www.w3.org/TR/2001/REC-SVG-20010904/DTD/svg10.dtd">
<svg version="1.0" xmlns="http://www.w3.org/2000/svg"
 width="462.000000pt" height="82.000000pt" viewBox="0 0 462.000000 82.000000"
 preserveAspectRatio="xMidYMid meet">
<metadata>
Created by potrace 1.14, written by Peter Selinger 2001-2017
</metadata>
<g transform="translate(0.000000,82.000000) scale(0.100000,-0.100000)"
fill="#000000" stroke="none">
<path d="M3835 811 c-20 -5 13 -9 100 -14 202 -10 404 -66 525 -146 224 -148
165 -391 -117 -479 -153 -49 -466 -78 -703 -67 -396 18 -604 37 -840 75 -459
74 -709 101 -965 104 -156 2 -161 3 -208 30 -270 158 -712 177 -1203 52 -164
-42 -414 -136 -414 -157 0 -4 39 10 88 30 279 121 618 191 930 191 176 0 306
-17 421 -56 78 -26 195 -83 187 -92 -3 -2 -36 -10 -74 -17 -149 -29 -222 -99
-187 -181 54 -129 405 -79 405 58 0 33 -42 108 -60 108 -6 0 -10 5 -10 12 0 8
47 10 178 5 210 -7 465 -34 773 -82 469 -74 563 -83 995 -92 318 -7 444 3 619
47 126 31 198 64 256 117 134 121 109 298 -57 408 -108 72 -340 138 -524 149
-47 2 -98 1 -115 -3z m-2095 -610 c30 -43 27 -94 -7 -121 -88 -69 -242 -78
-317 -19 -20 16 -26 29 -26 59 0 71 83 124 220 140 62 7 92 -7 130 -59z"/>
</g>
</svg>
